<svg width="20" height="29" viewBox="0 0 20 29" fill="none" xmlns="http://www.w3.org/2000/svg">
<path d="M9.86682 13.1577C11.6761 13.1577 13.1481 11.6857 13.1481 9.87646C13.1481 8.06718 11.6761 6.59521 9.86682 6.59521C8.05754 6.59521 6.58557 8.06718 6.58557 9.87646C6.58557 11.6857 8.05754 13.1577 9.86682 13.1577ZM9.86682 8.78271C10.4699 8.78271 10.9606 9.27337 10.9606 9.87646C10.9606 10.4796 10.4699 10.9702 9.86682 10.9702C9.26373 10.9702 8.77307 10.4796 8.77307 9.87646C8.77307 9.27337 9.26373 8.78271 9.86682 8.78271Z" fill="#333845"/>
<path d="M19.7106 9.87646C19.7106 4.44862 15.2947 0.0327148 9.86682 0.0327148C4.43898 0.0327148 0.0230713 4.44862 0.0230713 9.87646C0.0230713 12.0238 0.7024 14.0645 1.98767 15.778L7.24084 22.7817C7.85788 23.6042 8.83957 24.0952 9.86682 24.0952C10.8941 24.0952 11.8758 23.6042 12.4929 22.7816L17.746 15.778C19.0312 14.0645 19.7106 12.0238 19.7106 9.87646ZM15.996 14.4654L10.743 21.4689C10.5337 21.7478 10.2144 21.9077 9.86682 21.9077C9.51923 21.9077 9.19991 21.7478 8.99073 21.469L3.73761 14.4654C2.73863 13.1335 2.21057 11.5467 2.21057 9.87646C2.21057 5.65481 5.64516 2.22021 9.86682 2.22021C14.0885 2.22021 17.5231 5.65481 17.5231 9.87646C17.5231 11.5467 16.995 13.1335 15.996 14.4654Z" fill="#333845"/>
<path d="M15.3356 26.939C15.3356 26.3349 14.8459 25.8452 14.2418 25.8452H5.49182C4.88774 25.8452 4.39807 26.3349 4.39807 26.939C4.39807 27.543 4.88774 28.0327 5.49182 28.0327H14.2418C14.8459 28.0327 15.3356 27.543 15.3356 26.939Z" fill="#333845"/>
</svg>
