<svg width="26" height="21" viewBox="0 0 26 21" fill="none" xmlns="http://www.w3.org/2000/svg">
<path d="M23.6645 0.95874H1.96319C1.05379 0.95874 0.313843 1.69868 0.313843 2.60808V19.0924C0.313843 20.0019 1.05379 20.7417 1.96319 20.7417H23.6645C24.5739 20.7417 25.3138 20.0019 25.3138 19.0924V2.60808C25.3138 1.69868 24.574 0.95874 23.6645 0.95874ZM1.96319 2.37246H23.6645C23.7922 2.37246 23.9001 2.48038 23.9001 2.60808V13.5856L20.12 8.73422C19.8395 8.37429 19.429 8.15855 18.9936 8.14253C18.5582 8.12622 18.1329 8.31133 17.8266 8.64977L12.922 14.0702C12.8039 14.2006 12.5419 14.2366 12.3929 14.1429L8.36019 11.6033C7.66916 11.168 6.65778 11.2129 6.00794 11.7075L1.72757 14.9651V2.60808C1.72757 2.48038 1.83548 2.37246 1.96319 2.37246ZM23.6645 19.328H1.96319C1.83548 19.328 1.72757 19.2201 1.72757 19.0924V16.7416L6.86419 12.8324C7.0426 12.6967 7.41743 12.6801 7.60696 12.7995L11.6397 15.3391C12.3686 15.7982 13.3923 15.6574 13.9703 15.0187L18.8749 9.59829C18.9043 9.56577 18.9253 9.55587 18.9416 9.55521C18.954 9.55569 18.9779 9.5685 19.0049 9.60309L23.9001 15.8855V19.0923C23.9001 19.2201 23.7922 19.328 23.6645 19.328Z" fill="#333845"/>
<path d="M10.7606 10.5294C12.1412 10.5294 13.2644 9.40623 13.2644 8.02559C13.2644 6.64494 12.1412 5.52179 10.7606 5.52179C9.37996 5.52179 8.25681 6.64504 8.25681 8.02559C8.25681 9.40613 9.37996 10.5294 10.7606 10.5294ZM10.7606 6.93542C11.3617 6.93542 11.8507 7.42438 11.8507 8.02549C11.8507 8.62661 11.3617 9.11557 10.7606 9.11557C10.1595 9.11557 9.67053 8.62661 9.67053 8.02549C9.67053 7.42447 10.1595 6.93542 10.7606 6.93542Z" fill="#333845"/>
</svg>
