<svg width="125" height="34" viewBox="0 0 125 34" fill="none" xmlns="http://www.w3.org/2000/svg">
<path d="M121.765 19.8209V13.3413H124.895V24.6254H121.89V22.5758H121.773C121.518 23.2369 121.094 23.7683 120.502 24.1699C119.914 24.5715 119.197 24.7723 118.349 24.7723C117.595 24.7723 116.931 24.6009 116.358 24.2581C115.785 23.9153 115.337 23.4279 115.014 22.7962C114.696 22.1644 114.534 21.4077 114.529 20.5261V13.3413H117.659V19.9678C117.664 20.6339 117.842 21.1603 118.195 21.5473C118.548 21.9342 119.02 22.1276 119.613 22.1276C119.99 22.1276 120.343 22.0419 120.671 21.8705C120.999 21.6942 121.263 21.4346 121.464 21.0918C121.67 20.7489 121.77 20.3253 121.765 19.8209Z" fill="white"/>
<path d="M106.064 24.6254V13.3413H109.098V15.3101H109.216C109.422 14.6098 109.767 14.0808 110.252 13.7233C110.737 13.3609 111.295 13.1797 111.927 13.1797C112.084 13.1797 112.252 13.1895 112.434 13.2091C112.615 13.2287 112.774 13.2556 112.911 13.2899V16.0668C112.764 16.0228 112.561 15.9836 112.301 15.9493C112.042 15.915 111.804 15.8979 111.589 15.8979C111.128 15.8979 110.717 15.9983 110.355 16.1991C109.997 16.395 109.713 16.6692 109.502 17.0219C109.297 17.3745 109.194 17.781 109.194 18.2414V24.6254H106.064Z" fill="white"/>
<path d="M101.732 24.8168C101.247 24.8168 100.831 24.6453 100.483 24.3025C100.14 23.9548 99.9686 23.5385 99.9686 23.0536C99.9686 22.5737 100.14 22.1623 100.483 21.8194C100.831 21.4766 101.247 21.3052 101.732 21.3052C102.202 21.3052 102.613 21.4766 102.966 21.8194C103.319 22.1623 103.495 22.5737 103.495 23.0536C103.495 23.3769 103.412 23.6732 103.245 23.9425C103.084 24.207 102.87 24.4201 102.606 24.5817C102.342 24.7384 102.05 24.8168 101.732 24.8168Z" fill="white"/>
<path d="M94.266 24.6257V13.3416H97.3956V24.6257H94.266ZM95.8381 11.887C95.3728 11.887 94.9737 11.7327 94.6406 11.4242C94.3125 11.1107 94.1484 10.7361 94.1484 10.3002C94.1484 9.86919 94.3125 9.49942 94.6406 9.19087C94.9737 8.87743 95.3728 8.7207 95.8381 8.7207C96.3034 8.7207 96.7001 8.87743 97.0282 9.19087C97.3613 9.49942 97.5278 9.86919 97.5278 10.3002C97.5278 10.7361 97.3613 11.1107 97.0282 11.4242C96.7001 11.7327 96.3034 11.887 95.8381 11.887Z" fill="white"/>
<path d="M86.2583 29.093C85.2445 29.093 84.3752 28.9534 83.6503 28.6742C82.9304 28.4 82.3574 28.0253 81.9313 27.5502C81.5052 27.0752 81.2285 26.5413 81.1011 25.9487L83.9956 25.5593C84.0838 25.7846 84.2234 25.9952 84.4144 26.1911C84.6054 26.387 84.8576 26.5438 85.1711 26.6613C85.4894 26.7837 85.8763 26.845 86.3318 26.845C87.0126 26.845 87.5733 26.6784 88.0141 26.3454C88.4598 26.0173 88.6826 25.4663 88.6826 24.6925V22.6281H88.5504C88.4133 22.9416 88.2076 23.2379 87.9333 23.517C87.659 23.7962 87.3064 24.0239 86.8754 24.2003C86.4444 24.3766 85.9302 24.4647 85.3327 24.4647C84.4854 24.4647 83.714 24.2688 83.0186 23.877C82.328 23.4803 81.777 22.8754 81.3656 22.0624C80.9591 21.2445 80.7559 20.2111 80.7559 18.9623C80.7559 17.684 80.964 16.6163 81.3803 15.7592C81.7966 14.9021 82.35 14.2605 83.0406 13.8345C83.7361 13.4084 84.4976 13.1953 85.3253 13.1953C85.9571 13.1953 86.4861 13.3031 86.9122 13.5186C87.3383 13.7292 87.6811 13.9936 87.9407 14.312C88.2051 14.6254 88.4084 14.934 88.5504 15.2376H88.668V13.3422H91.7755V24.7365C91.7755 25.6965 91.5404 26.4997 91.0702 27.1462C90.6001 27.7927 89.9487 28.2775 89.1161 28.6008C88.2884 28.9289 87.3358 29.093 86.2583 29.093ZM86.3244 22.1139C86.8289 22.1139 87.255 21.989 87.6027 21.7392C87.9554 21.4845 88.2247 21.1221 88.4108 20.6519C88.6018 20.1769 88.6973 19.6087 88.6973 18.9476C88.6973 18.2864 88.6043 17.7134 88.4182 17.2285C88.2321 16.7387 87.9627 16.3592 87.6101 16.0898C87.2574 15.8204 86.8289 15.6857 86.3244 15.6857C85.8102 15.6857 85.3768 15.8253 85.0241 16.1045C84.6715 16.3788 84.4046 16.7608 84.2234 17.2505C84.0422 17.7403 83.9516 18.306 83.9516 18.9476C83.9516 19.5989 84.0422 20.1622 84.2234 20.6372C84.4095 21.1074 84.6764 21.4723 85.0241 21.7319C85.3768 21.9865 85.8102 22.1139 86.3244 22.1139Z" fill="white"/>
<path d="M71.4351 18.1027V24.6263H68.3055V13.3422H71.2882V15.3331H71.4204C71.6702 14.6768 72.0889 14.1577 72.6767 13.7757C73.2644 13.3888 73.977 13.1953 74.8145 13.1953C75.5981 13.1953 76.2813 13.3667 76.8641 13.7096C77.4469 14.0524 77.9 14.5422 78.2232 15.1788C78.5465 15.8106 78.7081 16.5649 78.7081 17.4415V24.6263H75.5785V17.9999C75.5834 17.3093 75.4071 16.7706 75.0496 16.3837C74.692 15.9918 74.1998 15.7959 73.5729 15.7959C73.1517 15.7959 72.7795 15.8866 72.4563 16.0678C72.1379 16.249 71.8881 16.5134 71.7069 16.8612C71.5306 17.204 71.44 17.6179 71.4351 18.1027Z" fill="white"/>
<path d="M59.5228 24.8394C58.8028 24.8394 58.1613 24.7145 57.598 24.4647C57.0348 24.21 56.5891 23.8354 56.261 23.3407C55.9377 22.8412 55.7761 22.2192 55.7761 21.4747C55.7761 20.8478 55.8912 20.3213 56.1214 19.8952C56.3516 19.4692 56.665 19.1263 57.0617 18.8667C57.4585 18.6072 57.909 18.4113 58.4135 18.279C58.9228 18.1468 59.4567 18.0537 60.015 17.9999C60.6713 17.9313 61.2002 17.8676 61.6018 17.8089C62.0034 17.7452 62.2948 17.6521 62.4761 17.5297C62.6573 17.4073 62.7479 17.226 62.7479 16.9861V16.942C62.7479 16.4767 62.6009 16.1167 62.3071 15.8621C62.0181 15.6074 61.6067 15.48 61.0729 15.48C60.5097 15.48 60.0615 15.6049 59.7285 15.8547C59.3955 16.0996 59.1751 16.4081 59.0673 16.7804L56.1728 16.5453C56.3198 15.8596 56.6087 15.267 57.0397 14.7674C57.4707 14.263 58.0266 13.8761 58.7073 13.6067C59.393 13.3324 60.1864 13.1953 61.0876 13.1953C61.7145 13.1953 62.3144 13.2688 62.8875 13.4157C63.4654 13.5626 63.9772 13.7904 64.4229 14.0989C64.8734 14.4075 65.2285 14.8042 65.4881 15.289C65.7477 15.769 65.8775 16.3445 65.8775 17.0155V24.6263H62.9095V23.0616H62.8213C62.6401 23.4142 62.3977 23.7252 62.094 23.9946C61.7904 24.259 61.4255 24.4672 60.9994 24.619C60.5733 24.7659 60.0811 24.8394 59.5228 24.8394ZM60.4191 22.6795C60.8794 22.6795 61.2859 22.5889 61.6386 22.4077C61.9912 22.2216 62.2679 21.9718 62.4687 21.6584C62.6695 21.3449 62.7699 20.9899 62.7699 20.5932V19.3957C62.672 19.4594 62.5373 19.5181 62.3659 19.572C62.1993 19.621 62.0108 19.6675 61.8002 19.7116C61.5896 19.7508 61.379 19.7875 61.1684 19.8218C60.9578 19.8512 60.7668 19.8781 60.5954 19.9026C60.2281 19.9565 59.9073 20.0422 59.633 20.1597C59.3587 20.2773 59.1457 20.4364 58.9939 20.6372C58.842 20.8331 58.7661 21.078 58.7661 21.3719C58.7661 21.798 58.9204 22.1237 59.2289 22.349C59.5424 22.5693 59.9391 22.6795 60.4191 22.6795Z" fill="white"/>
<path d="M42.7877 24.6256V9.58008H48.7236C49.8599 9.58008 50.8296 9.78333 51.6328 10.1898C52.4409 10.5914 53.0556 11.162 53.4768 11.9015C53.9029 12.6362 54.1159 13.5006 54.1159 14.4948C54.1159 15.4939 53.9004 16.3535 53.4694 17.0734C53.0384 17.7885 52.414 18.337 51.5961 18.719C50.7831 19.101 49.7987 19.292 48.6428 19.292H44.6684V16.7355H48.1286C48.7359 16.7355 49.2403 16.6522 49.6419 16.4857C50.0435 16.3192 50.3423 16.0694 50.5382 15.7364C50.739 15.4033 50.8394 14.9895 50.8394 14.4948C50.8394 13.9953 50.739 13.5741 50.5382 13.2313C50.3423 12.8884 50.0411 12.6288 49.6346 12.4525C49.233 12.2713 48.7261 12.1807 48.1139 12.1807H45.9687V24.6256H42.7877ZM50.9129 17.7787L54.6522 24.6256H51.1406L47.4821 17.7787H50.9129Z" fill="white"/>
<path fill-rule="evenodd" clip-rule="evenodd" d="M14.4453 3.46094C6.52562 3.46094 0.10498 9.88096 0.10498 17.8013C0.10498 21.3941 1.42637 24.6778 3.60956 27.1941C3.15922 28.7931 2.58489 30.8622 2.2894 32.0441C1.76011 34.1632 2.98218 33.429 2.98218 33.429L8.50029 30.8547L8.49968 30.8541C10.3109 31.6808 12.3244 32.141 14.4453 32.141C22.3656 32.141 28.7856 25.721 28.7856 17.8006C28.7856 9.88034 22.3656 3.46094 14.4453 3.46094Z" fill="white"/>
<path fill-rule="evenodd" clip-rule="evenodd" d="M16.3041 0.922363C24.2231 0.922363 30.6438 7.34299 30.6438 15.2627C30.6438 18.8555 29.3224 22.1392 27.1392 24.6555C27.5895 26.2551 28.1639 28.3242 28.4594 29.5061C28.9886 31.6246 27.7672 30.8911 27.7672 30.8911L22.2491 28.3162C20.4379 29.1428 18.425 29.6024 16.3041 29.6024C8.38377 29.6024 1.96313 23.1824 1.96313 15.2621C1.96313 7.34299 8.38377 0.922363 16.3041 0.922363Z" fill="#FFD600"/>
<path fill-rule="evenodd" clip-rule="evenodd" d="M19.3378 7.99274L20.2879 12.2148L24.318 13.7971C25.0028 14.063 25.3414 14.8378 25.0762 15.5225C24.9559 15.8328 24.7307 16.0722 24.4568 16.2166L20.7918 18.3917L20.5321 22.7161C20.4865 23.4509 19.8548 24.0129 19.1207 23.9672C18.7968 23.9481 18.5069 23.813 18.2879 23.6076L15.0695 20.7772L10.8753 21.8679C10.1628 22.0499 9.43545 21.6205 9.25346 20.908C9.17758 20.6119 9.20905 20.3109 9.3207 20.0493H9.31947L11.0357 16.0654L8.70813 12.4214C8.31455 11.8051 8.49653 10.9816 9.11281 10.5886C9.37129 10.4227 9.66987 10.3598 9.95425 10.3869V10.3807L14.2651 10.7823L17.0146 7.44061C17.4804 6.8743 18.32 6.79226 18.8856 7.25863C19.1225 7.45295 19.2737 7.71513 19.3366 7.99274H19.3378Z" fill="white"/>
</svg>
