<svg width="16" height="15" viewBox="0 0 16 15" fill="none" xmlns="http://www.w3.org/2000/svg">
<path fill-rule="evenodd" clip-rule="evenodd" d="M0.30011 2.00002C0.30011 1.70828 0.416006 1.4285 0.622289 1.2222C0.828583 1.01592 1.10837 0.900024 1.40011 0.900024H14.6001C14.8918 0.900024 15.1717 1.01592 15.3779 1.2222C15.5842 1.4285 15.7001 1.70828 15.7001 2.00002C15.7001 2.29177 15.5842 2.57155 15.3779 2.77785C15.1717 2.98413 14.8918 3.10002 14.6001 3.10002H1.40011C1.10837 3.10002 0.828583 2.98413 0.622289 2.77785C0.416006 2.57155 0.30011 2.29177 0.30011 2.00002ZM0.30011 7.50002C0.30011 7.20828 0.416006 6.9285 0.622289 6.7222C0.828583 6.51592 1.10837 6.40002 1.40011 6.40002H8.00011C8.29183 6.40002 8.57167 6.51592 8.77792 6.7222C8.98417 6.9285 9.10011 7.20828 9.10011 7.50002C9.10011 7.79174 8.98417 8.07158 8.77792 8.27783C8.57167 8.48408 8.29183 8.60002 8.00011 8.60002H1.40011C1.10837 8.60002 0.828583 8.48408 0.622289 8.27783C0.416006 8.07158 0.30011 7.79174 0.30011 7.50002ZM0.30011 13C0.30011 12.7083 0.416006 12.4285 0.622289 12.2222C0.828583 12.016 1.10837 11.9 1.40011 11.9H14.6001C14.8918 11.9 15.1717 12.016 15.3779 12.2222C15.5842 12.4285 15.7001 12.7083 15.7001 13C15.7001 13.2917 15.5842 13.5716 15.3779 13.7778C15.1717 13.9841 14.8918 14.1 14.6001 14.1H1.40011C1.10837 14.1 0.828583 13.9841 0.622289 13.7778C0.416006 13.5716 0.30011 13.2917 0.30011 13Z" fill="#333845"/>
</svg>
